<svg width="512" height="512" viewBox="0 0 512 512" fill="none" xmlns="http://www.w3.org/2000/svg">
<g clip-path="url(#clip0_543_2069)">
<path d="M500.096 162.884L261.47 86.2379C258.005 85.0214 254.232 84.9973 250.752 86.1696L11.8699 162.893C8.42037 164.005 5.41272 166.183 3.27974 169.114C1.14676 172.044 -0.00157112 175.576 1.61334e-06 179.2V406.955C0.0025837 412.282 1.66706 417.476 4.76147 421.812C7.85588 426.149 12.226 429.412 17.2629 431.147L247.578 510.558C252.991 512.471 258.896 512.474 264.311 510.566L494.711 431.121C499.749 429.392 504.122 426.135 507.221 421.803C510.32 417.471 511.99 412.281 512 406.955V179.2C512 171.75 507.187 165.154 500.096 162.884ZM247.467 105.165V221.867C247.467 224.13 248.366 226.3 249.966 227.901C251.566 229.501 253.737 230.4 256 230.4C258.263 230.4 260.434 229.501 262.034 227.901C263.634 226.3 264.533 224.13 264.533 221.867V105.148L494.933 179.132V179.268H494.882L256 256L17.1179 179.132L247.467 105.165ZM17.0667 406.955V197.18L247.467 271.181V492.467L22.8437 415.019C21.1605 414.444 19.6989 413.358 18.6631 411.912C17.6273 410.467 17.0692 408.733 17.0667 406.955ZM489.165 415.019L264.533 492.476V271.181L494.933 197.171V406.955C494.931 408.732 494.375 410.465 493.34 411.91C492.306 413.356 490.846 414.443 489.165 415.019Z" fill="black"/>
<path d="M218.547 279.817L56.4138 227.763C53.856 226.943 51.1406 226.737 48.4885 227.164C45.8363 227.591 43.3224 228.638 41.1511 230.219C38.9799 231.801 37.2127 233.873 35.9932 236.266C34.7738 238.66 34.1365 241.307 34.1333 243.994V388.693C34.1346 392.244 35.2434 395.706 37.3053 398.597C39.3672 401.488 42.2794 403.664 45.6362 404.821L207.77 460.732C210.341 461.618 213.087 461.878 215.779 461.488C218.471 461.098 221.031 460.071 223.245 458.491C225.459 456.911 227.264 454.825 228.509 452.406C229.753 449.988 230.402 447.307 230.4 444.587V296.107C230.416 292.483 229.275 288.949 227.144 286.019C225.012 283.089 222 280.916 218.547 279.817ZM51.2 301.841L213.333 353.894V393.813L51.2 341.76V301.841ZM213.333 296.107V336.034L51.2 283.981V243.994L213.333 296.107ZM51.2 388.693V359.68L213.333 411.733V444.587L51.2 388.693ZM470.852 230.195C468.677 228.62 466.163 227.576 463.512 227.15C460.86 226.723 458.146 226.924 455.586 227.738L293.453 279.791C289.996 280.892 286.981 283.068 284.849 286.004C282.717 288.939 281.578 292.479 281.6 296.107V444.587C281.601 447.305 282.251 449.984 283.497 452.401C284.743 454.817 286.548 456.901 288.762 458.479C290.976 460.056 293.534 461.083 296.225 461.472C298.916 461.86 301.66 461.601 304.23 460.715L466.364 404.804C469.718 403.648 472.628 401.474 474.69 398.587C476.751 395.7 477.862 392.241 477.867 388.693V243.994C477.86 241.305 477.222 238.655 476.004 236.259C474.785 233.862 473.021 231.785 470.852 230.195ZM460.8 243.994V303.369L417.92 317.116C412.891 318.82 408.54 322.091 405.507 326.45C402.473 330.809 400.917 336.025 401.067 341.333C401.056 345.009 399.859 348.583 397.653 351.524C395.448 354.465 392.352 356.615 388.826 357.654C385.3 358.693 381.533 358.567 378.085 357.293C374.637 356.019 371.693 353.666 369.69 350.583C366.751 346.219 362.454 342.947 357.466 341.274C352.478 339.602 347.077 339.623 342.101 341.333L298.667 355.251V296.107L460.8 243.994ZM298.667 444.587V373.163L347.307 357.615C348.709 357.091 350.241 357.022 351.685 357.417C353.13 357.812 354.413 358.652 355.354 359.817C359.362 366.004 365.266 370.727 372.182 373.279C379.099 375.832 386.655 376.076 393.722 373.976C400.789 371.877 406.986 367.545 411.386 361.63C415.787 355.715 418.154 348.535 418.133 341.163C418.016 339.499 418.439 337.841 419.338 336.436C420.237 335.031 421.565 333.954 423.125 333.363L460.8 321.289V388.702L298.667 444.587ZM256 68.2667C258.263 68.2667 260.434 67.3676 262.034 65.7673C263.634 64.167 264.533 61.9965 264.533 59.7333V8.53333C264.533 6.27015 263.634 4.09967 262.034 2.49936C260.434 0.899045 258.263 0 256 0C253.737 0 251.566 0.899045 249.966 2.49936C248.366 4.09967 247.467 6.27015 247.467 8.53333V59.7333C247.467 61.9965 248.366 64.167 249.966 65.7673C251.566 67.3676 253.737 68.2667 256 68.2667ZM137.429 80.6144C138.441 82.6399 140.216 84.1807 142.363 84.8976C144.511 85.6145 146.855 85.449 148.881 84.4373C150.907 83.4257 152.447 81.6508 153.164 79.5032C153.881 77.3556 153.716 75.0112 152.704 72.9856L127.104 21.7856C126.092 19.7601 124.317 18.2193 122.17 17.5024C120.022 16.7855 117.678 16.951 115.652 17.9627C113.627 18.9743 112.086 20.7492 111.369 22.8968C110.652 25.0444 110.818 27.3889 111.829 29.4144L137.429 80.6144ZM363.119 84.48C364.126 84.9866 365.224 85.2884 366.349 85.3681C367.474 85.4478 368.603 85.3038 369.672 84.9443C370.741 84.5848 371.728 84.0171 372.576 83.2739C373.424 82.5307 374.117 81.6268 374.613 80.6144L400.213 29.4144C401.225 27.3889 401.391 25.0444 400.674 22.8968C399.957 20.7492 398.416 18.9743 396.39 17.9627C394.365 16.951 392.02 16.7855 389.873 17.5024C387.725 18.2193 385.95 19.7601 384.939 21.7856L359.339 72.9856C358.829 73.988 358.523 75.0811 358.437 76.2023C358.351 77.3235 358.488 78.4505 358.839 79.5187C359.191 80.5868 359.749 81.575 360.484 82.4265C361.218 83.2779 362.114 83.9758 363.119 84.48Z" fill="black"/>
</g>
<defs>
<clipPath id="clip0_543_2069">
<rect width="512" height="512" fill="white"/>
</clipPath>
</defs>
</svg>
