<svg width="512" height="512" viewBox="0 0 512 512" fill="none" xmlns="http://www.w3.org/2000/svg">
<g clip-path="url(#clip0_532_2064)">
<path d="M479.491 56.8902H32.5084C14.5559 56.8902 7.62939e-06 71.4452 7.62939e-06 89.3977V422.604C7.62939e-06 440.556 14.5559 455.111 32.5084 455.111H479.491C497.444 455.111 512 440.556 512 422.603V89.3977C512 71.4452 497.445 56.8902 479.491 56.8902ZM479.491 89.3977V325.819L415.426 267.573C405.796 258.82 390.989 259.17 381.789 268.378L316.95 333.206L189.107 180.501C179.443 168.96 161.743 168.847 151.934 180.249L32.5084 319.042V89.3977H479.491ZM341.334 174.731C341.334 150.041 361.34 130.032 386.03 130.032C410.721 130.032 430.729 150.041 430.729 174.731C430.729 199.421 410.722 219.429 386.03 219.429C361.341 219.429 341.334 199.421 341.334 174.731Z" fill="#454545"/>
</g>
<defs>
<clipPath id="clip0_532_2064">
<rect width="512" height="512" fill="white"/>
</clipPath>
</defs>
</svg>
